<svg version="1" xmlns="http://www.w3.org/2000/svg" width="666.667" height="666.667" viewBox="0 0 500.000000 500.000000"><path d="M0 250v250h500V0H0v250zm206.6-95.1c18.6 46.5 34.1 84.8 34.2 85.3.2.4-8.4.8-19.1.8h-19.4l-2.4-6.3-2.5-6.2-25.6-.3-25.6-.2-2.7 6.5-2.8 6.5h-18.9c-10.3 0-18.8-.2-18.8-.5s15-38.2 33.3-84.2c18.4-46.1 33.7-84.7 34.1-85.7.4-1.1 1-1.5 1.5-1 .4.5 16 38.9 34.7 85.3zm58.4-53.4c10.2 14 18.8 25.5 19.1 25.5.3 0 8.7-11.5 18.8-25.5L321.1 76H342c12.4 0 21 .4 21 .9 0 .6-13.6 20-30.2 43.3l-30.3 42.3-.5 39-.5 39-17.7.3-17.8.2v-76.9l-31-43.4c-17-23.9-31-43.7-31-44.1 0-.3 9.6-.6 21.3-.6h21.2l18.5 25.5zm-78.5 162c21.9 5.6 40.5 24.1 46 46 1.9 7.6 1.9 21.4 0 29-4.5 17.5-17.6 33.7-33.6 41.3-11.2 5.4-17.3 6.6-30.5 6-9.1-.4-12.2-1-18.9-3.6-17.7-7-31.3-21.5-37.2-39.7-3.7-11.6-3.7-25.8.1-37 7.2-21.1 23.1-36.4 43.8-41.9 7.1-2 22.9-2 30.3-.1zM301.8 294c-.2 14.9-.1 27 .2 26.9.3 0 11.3-12.1 24.4-27l24-26.9h46.8l-3.3 3.8c-1.9 2.1-18.6 20.7-37.1 41.4-18.6 20.8-33.8 38-33.8 38.3 0 .5 46.5 55.5 62.8 74.2l5.4 6.3h-46.9l-20.9-24.9c-11.5-13.7-21.1-25-21.4-25-.3-.1-.4 11.1-.2 24.9l.3 25H266V267h36.1l-.3 27zM227 413.4v17.4l-6.2.7c-3.5.3-28.6.5-55.8.3l-49.5-.3-.3-17.8-.2-17.7h112v17.4z"/><path d="M165.9 178l-5.5 13.9 11.3.3c6.2.2 11.3.2 11.3 0 0-.4-11.1-27.6-11.3-27.9-.1 0-2.7 6.1-5.8 13.7zM162.5 298.6c-5.5 1.9-10.9 6.6-14.3 12.2-2.4 4.1-2.7 5.7-2.7 13.2 0 7.5.3 9.1 2.7 13.2 12.4 20.9 43.6 16.8 49.9-6.5 5.5-20.4-15.5-39.3-35.6-32.1z"/></svg>